<svg width="513" height="513" viewBox="0 0 513 513" fill="none" xmlns="http://www.w3.org/2000/svg">
<path d="M316.688 245.214C317.247 245.212 317.805 245.211 318.364 245.209C319.889 245.204 321.415 245.205 322.94 245.207C324.589 245.208 326.237 245.204 327.886 245.201C331.113 245.196 334.339 245.195 337.565 245.196C340.189 245.197 342.812 245.196 345.436 245.194C345.81 245.194 346.183 245.194 346.569 245.194C347.328 245.193 348.088 245.193 348.848 245.192C355.966 245.188 363.084 245.188 370.203 245.191C376.708 245.193 383.214 245.188 389.72 245.18C396.408 245.172 403.095 245.169 409.783 245.171C413.534 245.171 417.286 245.17 421.038 245.164C424.231 245.159 427.425 245.159 430.619 245.164C432.247 245.166 433.875 245.167 435.503 245.162C436.996 245.157 438.489 245.159 439.982 245.164C440.772 245.166 441.562 245.162 442.351 245.157C448.841 245.198 454.201 246.928 458.932 251.436C462.986 255.586 465.375 260.436 465.398 266.316C465.403 267.101 465.403 267.101 465.407 267.902C465.409 268.479 465.41 269.055 465.411 269.632C465.413 270.242 465.416 270.852 465.419 271.462C465.428 273.461 465.432 275.46 465.436 277.458C465.438 278.147 465.44 278.836 465.442 279.526C465.449 282.762 465.455 285.998 465.459 289.234C465.463 292.967 465.474 296.7 465.491 300.433C465.503 303.321 465.51 306.209 465.511 309.097C465.512 310.821 465.516 312.545 465.526 314.269C465.536 315.89 465.538 317.511 465.534 319.133C465.533 319.727 465.536 320.321 465.542 320.915C465.592 326.477 465.592 326.477 463.665 328.514C461.845 330.16 460.356 330.45 457.98 330.35C456.092 330.043 454.96 329.057 453.71 327.678C452.752 326.066 452.743 324.538 452.74 322.69C452.738 321.929 452.738 321.929 452.735 321.152C452.736 320.591 452.736 320.03 452.736 319.469C452.735 318.876 452.733 318.284 452.732 317.692C452.728 316.418 452.726 315.144 452.725 313.869C452.722 311.852 452.715 309.835 452.707 307.818C452.705 307.127 452.702 306.436 452.7 305.745C452.698 305.399 452.697 305.053 452.696 304.696C452.678 300.001 452.664 295.306 452.659 290.612C452.656 287.443 452.646 284.275 452.63 281.107C452.622 279.432 452.617 277.757 452.619 276.081C452.621 274.504 452.615 272.927 452.603 271.35C452.6 270.773 452.6 270.196 452.603 269.619C452.62 266.147 452.582 263.269 450.13 260.577C448.113 258.741 445.963 258.178 443.293 258.174C442.823 258.172 442.353 258.169 441.868 258.166C441.099 258.168 441.099 258.168 440.315 258.17C439.493 258.167 439.493 258.167 438.655 258.164C437.137 258.159 435.619 258.159 434.101 258.16C432.463 258.161 430.825 258.156 429.187 258.152C425.979 258.145 422.771 258.143 419.563 258.142C416.955 258.142 414.347 258.14 411.74 258.138C404.345 258.13 396.951 258.126 389.557 258.127C389.158 258.127 388.76 258.127 388.349 258.127C387.95 258.127 387.551 258.127 387.14 258.127C380.672 258.128 374.204 258.12 367.736 258.108C361.094 258.096 354.452 258.09 347.81 258.091C344.081 258.091 340.353 258.089 336.624 258.08C333.45 258.072 330.275 258.07 327.101 258.076C325.482 258.079 323.862 258.079 322.243 258.071C320.487 258.064 318.731 258.069 316.975 258.075C316.464 258.071 315.953 258.067 315.427 258.062C312.149 258.089 309.875 258.496 307.305 260.669C307.025 261.014 307.025 261.014 306.74 261.365C306.547 261.593 306.354 261.82 306.155 262.054C304.943 264.007 304.702 265.921 304.7 268.182C304.698 268.454 304.697 268.725 304.696 269.005C304.692 269.914 304.695 270.822 304.697 271.731C304.696 272.389 304.694 273.048 304.692 273.706C304.688 275.515 304.689 277.323 304.691 279.132C304.692 281.083 304.688 283.034 304.685 284.985C304.68 288.807 304.679 292.628 304.68 296.45C304.681 299.556 304.68 302.662 304.678 305.769C304.678 306.211 304.678 306.652 304.677 307.108C304.677 308.005 304.676 308.903 304.676 309.801C304.671 318.222 304.672 326.643 304.675 335.063C304.677 342.768 304.672 350.473 304.664 358.178C304.656 366.088 304.653 373.998 304.654 381.908C304.655 386.349 304.654 390.79 304.648 395.232C304.643 399.013 304.642 402.794 304.648 406.575C304.65 408.504 304.65 410.433 304.645 412.362C304.641 414.128 304.642 415.895 304.648 417.661C304.649 418.3 304.648 418.938 304.645 419.577C304.54 424.807 304.54 424.807 306.841 429.365C307.256 429.703 307.256 429.703 307.68 430.048C307.955 430.279 308.23 430.511 308.513 430.75C310.781 432.286 312.792 432.309 315.447 432.297C315.842 432.298 316.237 432.3 316.644 432.301C317.501 432.304 318.357 432.305 319.214 432.305C320.57 432.304 321.927 432.31 323.284 432.317C327.14 432.336 330.997 432.347 334.854 432.349C337.215 432.351 339.575 432.362 341.936 432.377C342.834 432.381 343.733 432.382 344.631 432.379C345.889 432.377 347.146 432.384 348.404 432.393C348.773 432.39 349.142 432.386 349.523 432.383C351.961 432.415 353.378 432.887 355.39 434.28C356.628 435.583 357.164 437.098 357.271 438.879C357.164 440.66 356.628 442.175 355.39 443.477C353.011 445.124 351.276 445.391 348.419 445.359C348.023 445.362 347.628 445.364 347.22 445.366C345.919 445.371 344.617 445.364 343.316 445.357C342.405 445.357 341.494 445.358 340.584 445.359C338.675 445.359 336.767 445.354 334.859 445.345C332.426 445.333 329.993 445.334 327.56 445.339C325.679 445.342 323.797 445.339 321.916 445.334C321.019 445.332 320.123 445.332 319.227 445.333C310.911 445.341 304.146 444.664 297.82 438.66C293.574 434.066 291.797 428.427 291.793 422.242C291.792 421.97 291.791 421.699 291.791 421.419C291.789 420.513 291.79 419.606 291.791 418.7C291.79 418.042 291.789 417.384 291.788 416.726C291.785 414.921 291.785 413.115 291.786 411.31C291.786 409.362 291.784 407.414 291.782 405.466C291.778 401.65 291.777 397.834 291.777 394.019C291.777 390.917 291.776 387.815 291.774 384.713C291.771 375.916 291.769 367.12 291.769 358.323C291.769 357.849 291.769 357.375 291.769 356.886C291.769 356.412 291.769 355.937 291.769 355.448C291.769 347.755 291.765 340.062 291.76 332.369C291.754 324.468 291.751 316.567 291.751 308.666C291.751 304.23 291.75 299.795 291.746 295.36C291.742 291.584 291.741 287.808 291.744 284.032C291.745 282.106 291.745 280.18 291.741 278.254C291.738 276.489 291.739 274.724 291.742 272.959C291.743 272.323 291.742 271.686 291.74 271.05C291.713 263.284 293.012 257.047 298.424 251.232C303.579 246.265 309.809 245.192 316.688 245.214Z" fill="white"/>
<path d="M464.918 350.253C465.175 350.471 465.433 350.689 465.697 350.914C470.407 355.206 472.15 360.912 472.442 367.084C472.45 375.472 468.241 380.887 462.607 386.553C462.079 387.082 461.551 387.61 461.022 388.139C460.459 388.705 459.897 389.271 459.334 389.838C457.814 391.367 456.292 392.893 454.768 394.418C453.815 395.373 452.863 396.328 451.911 397.283C448.586 400.618 445.258 403.952 441.928 407.283C438.829 410.383 435.736 413.489 432.645 416.597C429.986 419.271 427.322 421.941 424.656 424.608C423.065 426.199 421.477 427.791 419.892 429.387C418.403 430.888 416.909 432.383 415.41 433.875C414.863 434.421 414.317 434.97 413.773 435.521C409.873 439.465 406.74 441.709 401.2 442.594C400.84 442.656 400.481 442.717 400.11 442.781C398.973 442.974 397.836 443.161 396.698 443.347C395.931 443.476 395.164 443.606 394.396 443.736C392.685 444.026 390.972 444.311 389.259 444.593C388.502 444.717 387.746 444.846 386.99 444.974C383.167 445.594 379.719 445.096 376.423 443.007C373.714 440.909 372.222 438.029 371.694 434.699C371.591 432.019 371.912 429.516 372.352 426.876C372.421 426.455 372.49 426.034 372.562 425.599C372.709 424.712 372.858 423.824 373.008 422.937C373.234 421.59 373.45 420.243 373.666 418.894C373.81 418.028 373.956 417.161 374.102 416.295C374.165 415.897 374.227 415.499 374.291 415.089C375.324 409.179 378.523 405.829 382.64 401.756C383.207 401.188 383.774 400.619 384.34 400.049C385.872 398.511 387.41 396.98 388.95 395.45C390.565 393.844 392.174 392.232 393.784 390.622C396.488 387.918 399.196 385.218 401.906 382.521C405.034 379.408 408.157 376.289 411.276 373.167C414.284 370.157 417.295 367.151 420.307 364.146C421.587 362.87 422.865 361.593 424.142 360.316C425.647 358.81 427.156 357.307 428.667 355.807C429.219 355.257 429.77 354.707 430.32 354.156C439.927 344.529 453.654 340.208 464.918 350.253ZM438.999 363.212C438.474 363.729 438.474 363.729 437.938 364.256C437.17 365.017 436.409 365.783 435.655 366.557C437.339 368.577 439.101 370.478 440.969 372.329C441.353 372.713 441.353 372.713 441.745 373.104C442.554 373.91 443.363 374.714 444.173 375.519C444.725 376.069 445.278 376.62 445.83 377.17C447.175 378.511 448.522 379.85 449.869 381.188C450.331 380.795 450.793 380.401 451.255 380.007C451.512 379.788 451.769 379.568 452.034 379.342C453.124 378.394 454.147 377.399 455.173 376.381C455.554 376.006 455.935 375.631 456.327 375.244C458.569 372.8 459.725 370.556 460.032 367.236C459.764 364.122 458.852 361.645 456.557 359.45C449.505 354.794 444.405 357.812 438.999 363.212ZM424.936 377.133C424.445 377.593 424.445 377.593 423.945 378.062C423.583 378.403 423.222 378.744 422.85 379.096C422.282 379.63 422.282 379.63 421.702 380.176C418.174 383.507 414.683 386.876 411.204 390.258C408.871 392.526 406.527 394.779 404.149 397C389.791 409.908 389.791 409.908 384.209 427.811C384.167 429.136 384.189 430.448 384.235 431.772C384.235 432.048 384.235 432.324 384.235 432.608C385.769 432.48 387.301 432.337 388.834 432.19C389.307 432.148 389.781 432.106 390.269 432.063C399.508 431.131 404.673 428.341 411.042 421.493C412.089 420.379 413.168 419.296 414.242 418.209C416.26 416.159 418.249 414.085 420.228 411.999C422.489 409.621 424.781 407.273 427.075 404.926C431.781 400.112 436.448 395.262 441.09 390.385C439.217 388.166 439.217 388.166 437.229 386.052C436.996 385.818 436.763 385.584 436.523 385.343C436.281 385.102 436.04 384.861 435.791 384.613C435.535 384.357 435.28 384.101 435.017 383.838C434.483 383.304 433.949 382.77 433.414 382.237C432.592 381.417 431.771 380.594 430.951 379.772C430.431 379.252 429.91 378.731 429.389 378.211C429.143 377.965 428.897 377.718 428.644 377.463C426.808 375.508 426.808 375.508 424.936 377.133Z" fill="white"/>
<path d="M336.959 315.76C337.515 315.757 337.515 315.757 338.082 315.753C339.321 315.746 340.56 315.751 341.799 315.756C342.688 315.754 343.578 315.751 344.467 315.748C346.881 315.74 349.295 315.743 351.709 315.748C354.236 315.752 356.763 315.748 359.289 315.746C363.533 315.743 367.776 315.747 372.02 315.755C376.925 315.764 381.83 315.761 386.735 315.752C390.947 315.744 395.159 315.743 399.371 315.747C401.886 315.75 404.401 315.75 406.917 315.745C409.282 315.74 411.647 315.743 414.012 315.753C414.88 315.755 415.748 315.755 416.615 315.751C417.801 315.746 418.985 315.752 420.171 315.76C420.513 315.757 420.856 315.753 421.209 315.749C423.563 315.781 424.93 316.31 426.876 317.645C428.206 319.167 428.689 320.893 428.6 322.897C428.252 324.933 427.267 326.433 425.622 327.678C423.522 328.554 421.685 328.634 419.451 328.623C419.088 328.625 418.724 328.626 418.349 328.628C417.133 328.632 415.917 328.631 414.701 328.629C413.828 328.631 412.956 328.633 412.083 328.636C409.713 328.641 407.344 328.641 404.975 328.64C402.997 328.64 401.019 328.642 399.041 328.644C394.374 328.649 389.708 328.649 385.041 328.646C380.227 328.644 375.413 328.649 370.6 328.658C366.466 328.665 362.332 328.668 358.198 328.666C355.73 328.665 353.261 328.667 350.793 328.672C348.471 328.678 346.15 328.677 343.829 328.671C342.977 328.67 342.126 328.672 341.274 328.675C340.111 328.679 338.948 328.676 337.785 328.671C337.28 328.675 337.28 328.675 336.766 328.68C334.589 328.659 333.076 328.283 331.143 327.26C329.264 325.232 328.902 323.917 328.937 321.215C329.164 319.131 330.246 318.039 331.808 316.754C333.619 315.761 334.931 315.738 336.959 315.76Z" fill="white"/>
<path d="M336.827 282.049C337.199 282.048 337.57 282.046 337.953 282.045C339.203 282.04 340.452 282.038 341.702 282.037C342.596 282.034 343.49 282.031 344.384 282.029C346.816 282.021 349.249 282.017 351.681 282.013C353.2 282.011 354.719 282.009 356.237 282.006C360.987 281.998 365.737 281.992 370.487 281.989C375.974 281.985 381.462 281.974 386.949 281.957C391.187 281.944 395.426 281.938 399.665 281.937C402.198 281.936 404.731 281.932 407.264 281.921C409.646 281.912 412.028 281.91 414.411 281.914C415.285 281.914 416.16 281.912 417.034 281.906C418.228 281.899 419.421 281.901 420.615 281.907C420.962 281.902 421.308 281.898 421.665 281.893C424.253 281.922 425.718 282.705 427.634 284.489C428.711 286.585 428.737 288.579 428.078 290.811C427.11 292.458 426.067 293.385 424.368 294.234C423.178 294.278 421.999 294.296 420.809 294.296C420.25 294.298 420.25 294.298 419.679 294.3C418.422 294.305 417.166 294.307 415.909 294.308C415.011 294.311 414.113 294.314 413.215 294.317C410.769 294.324 408.324 294.328 405.879 294.332C404.352 294.334 402.825 294.336 401.299 294.339C396.525 294.347 391.75 294.353 386.976 294.356C381.46 294.361 375.944 294.372 370.428 294.388C366.168 294.401 361.908 294.407 357.648 294.409C355.102 294.41 352.556 294.413 350.01 294.424C347.615 294.434 345.22 294.435 342.825 294.431C341.946 294.431 341.067 294.433 340.187 294.439C338.987 294.447 337.787 294.444 336.587 294.438C336.065 294.445 336.065 294.445 335.532 294.452C333.32 294.428 332.061 294.03 330.307 292.562C328.919 290.572 328.73 288.647 329.053 286.291C329.742 284.74 330.705 283.644 331.979 282.529C333.601 281.988 335.137 282.049 336.827 282.049Z" fill="white"/>
<path d="M335.563 349.776C335.955 349.774 336.347 349.771 336.751 349.769C337.18 349.768 337.609 349.768 338.052 349.767C338.731 349.764 338.731 349.764 339.424 349.761C340.925 349.755 342.426 349.752 343.928 349.75C344.97 349.747 346.012 349.745 347.054 349.743C348.96 349.739 350.867 349.736 352.774 349.735C355.299 349.733 357.823 349.728 360.348 349.717C363.057 349.706 365.767 349.7 368.476 349.699C369.509 349.698 370.542 349.695 371.575 349.689C373.02 349.682 374.465 349.683 375.91 349.686C376.55 349.68 376.55 349.68 377.203 349.674C379.443 349.687 381.056 349.808 382.981 351.089C384.839 353.148 385.218 354.413 385.19 357.133C384.973 359.075 383.96 360.211 382.537 361.462C381.197 362.283 380.096 362.429 378.561 362.435C377.973 362.438 377.973 362.438 377.373 362.442C376.944 362.443 376.514 362.443 376.072 362.444C375.393 362.447 375.393 362.447 374.7 362.45C373.199 362.456 371.697 362.459 370.196 362.461C369.154 362.464 368.112 362.466 367.07 362.468C365.164 362.472 363.257 362.475 361.35 362.476C358.825 362.478 356.301 362.483 353.776 362.494C351.066 362.505 348.357 362.511 345.648 362.511C344.615 362.513 343.582 362.516 342.549 362.522C341.104 362.529 339.659 362.528 338.214 362.525C337.574 362.531 337.574 362.531 336.921 362.537C334.68 362.524 333.068 362.403 331.143 361.122C329.284 359.063 328.906 357.798 328.933 355.078C329.151 353.136 330.164 352 331.587 350.749C332.927 349.928 334.028 349.782 335.563 349.776Z" fill="white"/>
<path d="M184.148 261.778C189.838 265.519 195.568 268.643 201.897 271.154L203.211 271.676C224.374 279.842 244.674 277.274 265.188 268.745C271.285 265.895 276.814 262.154 282.378 258.389L282.405 258.371C295.442 249.625 295.442 249.625 302.636 250.029C303.162 250.046 302.426 271.525 302.969 271.542C302.969 271.542 296.867 274.428 294.083 276.337C292.726 277.232 291.369 278.126 290.011 279.018L288.033 280.331C265.988 294.805 239.053 301.857 212.864 296.792C194.908 292.925 179.897 285.301 164.812 274.996C159.222 271.281 155.28 271.304 148.848 272.968L147.4 273.343C134.666 276.828 126.074 285.318 119.56 296.554C107.915 317.398 104.356 341.884 104.198 365.477C104.187 366.724 104.168 367.971 104.141 369.218C103.904 380.545 105.041 390.757 112.734 399.713L113.876 401.06C122.542 410.46 134.924 412.421 147.104 412.923C151.891 413.044 156.679 413.035 161.467 413.025L162.106 413.024C163.77 413.026 165.434 413.029 167.097 413.032C171.116 413.037 175.136 413.036 179.155 413.032C182.426 413.029 185.697 413.029 188.969 413.03L190.388 413.031L193.245 413.032C202.141 413.036 211.036 413.032 219.931 413.024C227.536 413.018 235.141 413.019 242.746 413.026C251.613 413.033 260.48 413.036 269.347 413.032L272.192 413.03L273.606 413.03C276.867 413.029 280.128 413.031 283.389 413.034C287.792 413.038 292.194 413.035 296.597 413.027C298.203 413.025 299.809 413.026 301.416 413.029C299.684 412.793 304.019 433.869 302.151 433.874C297.626 433.886 293.101 433.887 288.575 433.883C284.893 433.88 281.21 433.881 277.528 433.885L275.933 433.887L272.724 433.89C262.717 433.899 252.71 433.896 242.704 433.888C233.575 433.881 224.446 433.89 215.317 433.906C205.914 433.923 196.512 433.93 187.109 433.925C181.842 433.923 176.575 433.924 171.308 433.936C166.824 433.947 162.34 433.947 157.855 433.935C155.573 433.929 153.292 433.929 151.01 433.938C130.976 434.013 113.726 430.853 98.9107 416.301L97.2907 414.733C87.4677 404.59 82.9432 390.448 82.8732 376.523L82.8585 374.59C82.8464 372.525 82.842 370.459 82.8408 368.394L82.8394 366.26C82.8506 355.598 83.2299 345.264 85.0871 334.742L85.4688 332.486C89.2116 310.639 95.7067 289.869 109.97 272.536L111.087 271.097C120.619 259.169 136.503 252.299 151.378 250.567C165.113 249.148 172.936 254.332 184.148 261.778Z" fill="white"/>
<path d="M281.339 97.2759C287.307 102.277 292.565 107.35 297.28 113.565C297.697 114.11 298.115 114.655 298.546 115.217C306.456 126.002 310.819 137.759 313.177 150.888C313.305 151.596 313.433 152.303 313.566 153.032C316.175 176.285 310.86 198.582 296.588 217.242C294.607 219.641 292.523 221.909 290.368 224.153C289.785 224.78 289.202 225.406 288.602 226.051C284.041 230.817 279.311 234.437 273.78 237.977C273.205 238.36 272.63 238.743 272.038 239.138C259.28 247.305 243.653 250.709 228.68 250.634C227.866 250.631 227.053 250.627 226.214 250.624C219.738 250.537 213.701 249.929 207.426 248.345C206.742 248.172 206.742 248.172 206.045 247.996C193.575 244.748 181.773 238.579 172.362 229.761C171.055 228.544 169.726 227.426 168.331 226.313C165.004 223.479 162.394 219.998 159.735 216.55C159.321 216.018 158.908 215.485 158.482 214.936C147.712 200.327 142.863 183.49 142.887 165.446C142.888 164.98 142.888 164.513 142.888 164.032C142.934 151.739 144.861 140.639 150.058 129.462C150.37 128.756 150.682 128.05 151.003 127.323C157.654 113.044 169.404 100.621 182.544 92.138C183.151 91.7406 183.759 91.3432 184.385 90.9338C213.646 72.7967 254.695 75.6018 281.339 97.2759ZM179.524 122.961C166.661 137.797 163.733 154.498 164.573 173.697C165.156 180.329 167.212 186.397 170.103 192.359C170.416 193.006 170.73 193.653 171.053 194.319C178.762 209.277 192.5 221.091 208.471 226.332C224.421 231.095 242.21 230.347 257.191 222.771C263.372 219.404 268.726 215.228 273.78 210.33C274.194 209.966 274.608 209.603 275.035 209.228C285.478 199.73 291.825 184.504 292.527 170.618C293.074 152.567 289.059 137.251 277.235 123.241C276.708 122.543 276.18 121.844 275.637 121.124C265.491 110.034 250.924 101.916 235.783 100.999C213.462 100.081 194.813 106.122 179.524 122.961Z" fill="white"/>
<path d="M220.056 305.688C221.465 306.427 221.465 306.427 222.31 307.941C222.911 313.015 221.685 317.983 220.63 322.914C220.449 323.781 220.269 324.649 220.089 325.516C219.602 327.856 219.108 330.193 218.612 332.53C218.092 334.982 217.579 337.436 217.065 339.889C216.201 344.005 215.332 348.119 214.461 352.233C213.454 356.986 212.455 361.741 211.46 366.496C210.501 371.08 209.537 375.662 208.569 380.244C208.158 382.191 207.75 384.138 207.343 386.085C206.863 388.377 206.379 390.667 205.89 392.957C205.712 393.796 205.536 394.636 205.361 395.476C205.122 396.624 204.877 397.771 204.63 398.917C204.495 399.559 204.359 400.2 204.22 400.861C203.455 403.487 202.629 404.99 200.342 406.514C197.928 406.827 196.795 406.776 194.744 405.423C192.54 402.15 193.572 398.37 194.277 394.684C194.596 393.117 194.929 391.553 195.262 389.989C195.443 389.122 195.623 388.256 195.803 387.389C196.291 385.048 196.785 382.708 197.28 380.368C197.799 377.915 198.313 375.46 198.827 373.005C199.692 368.885 200.56 364.767 201.431 360.648C202.437 355.891 203.436 351.133 204.432 346.374C205.391 341.788 206.356 337.203 207.323 332.619C207.733 330.671 208.142 328.723 208.55 326.774C209.029 324.479 209.514 322.186 210.002 319.893C210.18 319.053 210.356 318.212 210.531 317.371C210.77 316.221 211.015 315.072 211.262 313.924C211.397 313.281 211.533 312.639 211.672 311.977C213 307.225 214.876 304.906 220.056 305.688Z" fill="white"/>
<path d="M242.024 324.839C245.977 327.126 249.374 330.649 252.801 333.645C254.744 335.341 256.704 337.013 258.676 338.675C261.917 341.408 265.148 344.152 268.355 346.924C269.489 347.902 270.631 348.859 271.792 349.806C275.049 352.515 275.049 352.515 275.997 354.728C275.586 358.592 273.569 360.437 270.681 362.79C270.133 363.218 269.586 363.647 269.022 364.088C267.472 365.315 266.012 366.594 264.555 367.93C262.193 370.081 259.75 372.104 257.266 374.113C255.605 375.483 253.976 376.884 252.354 378.3C250.922 379.55 249.483 380.792 248.043 382.033C247.218 382.749 246.402 383.474 245.587 384.201C243.647 385.853 242.195 387.025 239.595 387.187C237.518 386.8 237.518 386.8 236.145 385.92C234.973 384.091 234.74 382.771 234.702 380.604C235.944 377.883 237.984 376.249 240.229 374.372C240.789 373.896 240.789 373.896 241.36 373.41C242.136 372.751 242.914 372.092 243.692 371.436C244.778 370.518 245.857 369.592 246.933 368.663C251.789 364.469 256.725 360.387 261.739 356.383C260.85 353.956 258.987 352.591 257.057 350.996C256.705 350.7 256.352 350.404 255.99 350.099C255.259 349.485 254.527 348.872 253.794 348.261C252.211 346.94 250.638 345.606 249.065 344.272C248.467 343.765 247.868 343.259 247.27 342.752C246.968 342.497 246.667 342.242 246.357 341.979C245.693 341.418 245.029 340.859 244.363 340.302C243.3 339.41 242.239 338.514 241.179 337.619C240.855 337.348 240.531 337.078 240.197 336.8C234.941 332.341 234.941 332.341 234.385 329.31C234.777 327.26 235.488 326.306 236.955 324.839C239.043 324.143 239.902 324.239 242.024 324.839Z" fill="white"/>
<path d="M181.753 324.839C183.321 326.246 183.895 327.201 184.394 329.24C183.174 334.894 175.845 339.292 171.614 342.864C170.975 343.407 170.335 343.951 169.696 344.495C167.211 346.604 164.721 348.707 162.208 350.783C161.868 351.066 161.527 351.349 161.176 351.641C160.52 352.187 159.861 352.73 159.2 353.27C158.435 353.907 157.699 354.579 156.969 355.256C156.969 355.628 156.969 356 156.969 356.383C157.795 357.133 158.661 357.841 159.539 358.53C162.171 360.636 164.744 362.792 167.284 365.008C168.004 365.634 168.723 366.261 169.443 366.887C169.801 367.199 170.159 367.511 170.529 367.833C172.292 369.363 174.065 370.883 175.839 372.401C176.304 372.799 176.304 372.799 176.779 373.206C177.079 373.462 177.378 373.719 177.687 373.983C177.98 374.236 178.273 374.488 178.574 374.749C179.235 375.309 179.906 375.858 180.584 376.399C180.94 376.688 181.296 376.977 181.663 377.275C181.989 377.533 182.315 377.792 182.651 378.058C184.165 379.694 184.041 381.248 184.006 383.42C183.395 385.357 182.94 385.633 181.19 386.8C178.383 387.121 177.26 387.171 174.86 385.623C174.273 385.099 173.696 384.563 173.128 384.019C172.49 383.442 171.851 382.867 171.212 382.291C170.899 382.004 170.586 381.716 170.264 381.42C168.996 380.273 167.668 379.207 166.334 378.139C163.126 375.528 160.01 372.818 156.892 370.102C155.442 368.839 153.986 367.585 152.522 366.339C152.169 366.038 151.816 365.738 151.453 365.428C150.787 364.861 150.12 364.296 149.452 363.731C143.531 358.689 143.531 358.689 142.887 355.256C143.576 352.656 145.11 351.2 147.077 349.483C147.379 349.212 147.682 348.941 147.993 348.663C150.371 346.553 152.822 344.54 155.297 342.545C157.258 340.937 159.175 339.283 161.088 337.619C161.444 337.31 161.799 337.001 162.166 336.683C163.611 335.427 165.054 334.171 166.493 332.909C177.407 323.335 177.407 323.335 181.753 324.839Z" fill="white"/>
</svg>
