<svg width="370" height="370" viewBox="0 0 370 370" fill="none" xmlns="http://www.w3.org/2000/svg">
<path d="M272.75 44.9377C278.409 50.1944 283.307 55.8615 288 62.0002C288.726 62.8987 289.452 63.7972 290.199 64.7229C316.189 97.6971 325.589 140.213 321.535 181.512C317.644 213.374 303.933 241.233 284 266C288.309 271.155 292.832 275.956 297.61 280.676C298.348 281.409 299.085 282.142 299.845 282.896C301.434 284.476 303.026 286.054 304.618 287.632C307.138 290.13 309.655 292.633 312.17 295.137C319.318 302.251 326.47 309.361 333.633 316.461C338.023 320.814 342.405 325.173 346.783 329.538C348.45 331.196 350.119 332.852 351.791 334.505C354.127 336.814 356.454 339.133 358.778 341.454C359.469 342.132 360.159 342.81 360.87 343.508C365.188 347.845 368.525 351.739 369.438 358C368.871 361.886 367.473 363.978 365 367C361.394 369.222 358.698 369.49 354.569 368.806C343.611 365.37 332.563 349.687 324.617 341.715C322.95 340.046 321.283 338.378 319.616 336.709C315.257 332.347 310.901 327.981 306.546 323.615C302.09 319.149 297.631 314.685 293.172 310.221C284.445 301.483 275.722 292.743 267 284C266.464 284.404 265.927 284.809 265.374 285.225C264.664 285.759 263.953 286.294 263.221 286.844C262.52 287.372 261.818 287.9 261.095 288.444C225.004 315.245 181.992 327.059 137.125 320.875C97.2513 314.644 59.3994 293.46 35.0001 261C34.6022 260.477 34.2044 259.954 33.7945 259.416C8.04844 225.392 -3.40547 182.893 1.94539 140.456C6.80561 106.904 20.9286 75.8983 44.5792 51.4724C46.0134 49.9864 47.4247 48.4806 48.836 46.9729C59.9019 35.335 72.7692 26.3899 87.0001 19.0002C87.6414 18.6639 88.2827 18.3277 88.9434 17.9812C149.633 -13.4105 223.035 -0.298313 272.75 44.9377ZM60.6951 66.8852C54.6914 73.1182 49.5755 79.662 45.0001 87.0002C44.6127 87.6183 44.2254 88.2364 43.8263 88.8733C24.4619 120.297 18.7084 157.106 26.7852 193.059C31.4009 212.347 39.3732 230.555 52.0001 246C52.4461 246.55 52.8921 247.1 53.3516 247.667C77.4245 277.17 110.062 294.985 147.875 299.688C185.716 302.608 222.097 291.747 251 267C251.832 266.291 252.663 265.582 253.52 264.852C281.267 240.557 297.357 206.623 300 170C302.057 136.998 291.872 102.752 271 77.0002C270.523 76.4063 270.046 75.8124 269.554 75.2004C245.962 46.1065 213.109 27.7897 175.761 23.7585C131.852 19.4982 91.43 35.8875 60.6951 66.8852Z" fill="#0583FF"/>
</svg>
