<svg width="513" height="512" viewBox="0 0 513 512" fill="none" xmlns="http://www.w3.org/2000/svg">
<path d="M316.688 244.752C317.247 244.751 317.805 244.749 318.364 244.747C319.889 244.743 321.415 244.744 322.94 244.746C324.589 244.747 326.237 244.743 327.886 244.74C331.113 244.735 334.339 244.734 337.565 244.735C340.189 244.736 342.812 244.735 345.436 244.733C345.81 244.733 346.183 244.733 346.569 244.732C347.328 244.732 348.088 244.731 348.848 244.731C355.966 244.726 363.084 244.727 370.203 244.73C376.708 244.732 383.214 244.727 389.72 244.719C396.408 244.711 403.095 244.708 409.783 244.709C413.534 244.71 417.286 244.709 421.038 244.703C424.231 244.698 427.425 244.698 430.619 244.703C432.247 244.705 433.875 244.705 435.503 244.7C436.996 244.696 438.489 244.697 439.982 244.703C440.772 244.705 441.562 244.7 442.351 244.695C448.841 244.736 454.201 246.466 458.932 250.975C462.986 255.125 465.375 259.975 465.398 265.855C465.403 266.64 465.403 266.64 465.407 267.441C465.409 268.017 465.41 268.594 465.411 269.171C465.413 269.781 465.416 270.391 465.419 271.001C465.428 272.999 465.432 274.998 465.436 276.997C465.438 277.686 465.44 278.375 465.442 279.064C465.449 282.3 465.455 285.536 465.459 288.773C465.463 292.506 465.474 296.239 465.491 299.972C465.503 302.86 465.51 305.748 465.511 308.636C465.512 310.36 465.516 312.084 465.526 313.808C465.536 315.429 465.538 317.05 465.534 318.671C465.533 319.266 465.536 319.86 465.542 320.454C465.592 326.015 465.592 326.015 463.665 328.053C461.845 329.699 460.356 329.988 457.98 329.888C456.092 329.581 454.96 328.596 453.71 327.217C452.752 325.604 452.743 324.077 452.74 322.229C452.738 321.467 452.738 321.467 452.735 320.691C452.736 320.13 452.736 319.568 452.736 319.007C452.735 318.415 452.733 317.823 452.732 317.231C452.728 315.957 452.726 314.682 452.725 313.408C452.722 311.391 452.715 309.374 452.707 307.357C452.705 306.666 452.702 305.975 452.7 305.284C452.698 304.937 452.697 304.591 452.696 304.235C452.678 299.54 452.664 294.845 452.659 290.15C452.656 286.982 452.646 283.814 452.63 280.646C452.622 278.971 452.617 277.295 452.619 275.62C452.621 274.043 452.615 272.466 452.603 270.889C452.6 270.312 452.6 269.735 452.603 269.158C452.62 265.685 452.582 262.807 450.13 260.116C448.113 258.279 445.963 257.717 443.293 257.713C442.823 257.71 442.353 257.708 441.868 257.705C441.099 257.707 441.099 257.707 440.315 257.709C439.493 257.706 439.493 257.706 438.655 257.703C437.137 257.698 435.619 257.698 434.101 257.699C432.463 257.699 430.825 257.695 429.187 257.691C425.979 257.684 422.771 257.682 419.563 257.681C416.955 257.681 414.347 257.679 411.74 257.676C404.345 257.669 396.951 257.665 389.557 257.666C389.158 257.666 388.76 257.666 388.349 257.666C387.95 257.666 387.551 257.666 387.14 257.666C380.672 257.666 374.204 257.658 367.736 257.646C361.094 257.634 354.452 257.629 347.81 257.629C344.081 257.63 340.353 257.627 336.624 257.618C333.45 257.611 330.275 257.609 327.101 257.615C325.482 257.617 323.862 257.617 322.243 257.61C320.487 257.602 318.731 257.608 316.975 257.614C316.464 257.61 315.953 257.605 315.427 257.601C312.149 257.628 309.875 258.035 307.305 260.208C307.025 260.553 307.025 260.553 306.74 260.904C306.547 261.131 306.354 261.359 306.155 261.593C304.943 263.545 304.702 265.46 304.7 267.721C304.698 267.992 304.697 268.264 304.696 268.544C304.692 269.452 304.695 270.361 304.697 271.269C304.696 271.928 304.694 272.586 304.692 273.245C304.688 275.053 304.689 276.862 304.691 278.671C304.692 280.622 304.688 282.573 304.685 284.523C304.68 288.345 304.679 292.167 304.68 295.989C304.681 299.095 304.68 302.201 304.678 305.307C304.678 305.749 304.678 306.191 304.677 306.646C304.677 307.544 304.676 308.442 304.676 309.34C304.671 317.76 304.672 326.181 304.675 334.602C304.677 342.307 304.672 350.012 304.664 357.716C304.656 365.626 304.653 373.536 304.654 381.446C304.655 385.888 304.654 390.329 304.648 394.77C304.643 398.551 304.642 402.332 304.648 406.113C304.65 408.042 304.65 409.971 304.645 411.901C304.641 413.667 304.642 415.433 304.648 417.2C304.649 417.838 304.648 418.477 304.645 419.116C304.54 424.345 304.54 424.345 306.841 428.904C307.256 429.242 307.256 429.242 307.68 429.586C307.955 429.818 308.23 430.05 308.513 430.288C310.781 431.825 312.792 431.848 315.447 431.836C315.842 431.837 316.237 431.839 316.644 431.84C317.501 431.843 318.357 431.844 319.214 431.844C320.57 431.843 321.927 431.849 323.284 431.856C327.14 431.875 330.997 431.885 334.854 431.888C337.215 431.89 339.575 431.9 341.936 431.915C342.834 431.919 343.733 431.92 344.631 431.918C345.889 431.915 347.146 431.922 348.404 431.932C348.773 431.928 349.142 431.925 349.523 431.922C351.961 431.954 353.378 432.426 355.39 433.819C356.628 435.122 357.164 436.636 357.271 438.418C357.164 440.199 356.628 441.713 355.39 443.016C353.011 444.663 351.276 444.929 348.419 444.898C348.023 444.9 347.628 444.903 347.22 444.905C345.919 444.91 344.617 444.903 343.316 444.896C342.405 444.896 341.494 444.896 340.584 444.898C338.675 444.898 336.767 444.893 334.859 444.883C332.426 444.872 329.993 444.873 327.56 444.878C325.679 444.881 323.797 444.878 321.916 444.872C321.019 444.871 320.123 444.87 319.227 444.872C310.911 444.88 304.146 444.203 297.82 438.199C293.574 433.605 291.797 427.965 291.793 421.781C291.792 421.509 291.791 421.237 291.791 420.958C291.789 420.051 291.79 419.145 291.791 418.238C291.79 417.58 291.789 416.922 291.788 416.265C291.785 414.459 291.785 412.654 291.786 410.849C291.786 408.901 291.784 406.952 291.782 405.004C291.778 401.189 291.777 397.373 291.777 393.557C291.777 390.455 291.776 387.353 291.774 384.251C291.771 375.455 291.769 366.658 291.769 357.862C291.769 357.388 291.769 356.913 291.769 356.425C291.769 355.95 291.769 355.476 291.769 354.986C291.769 347.293 291.765 339.6 291.76 331.907C291.754 324.006 291.751 316.105 291.751 308.204C291.751 303.769 291.75 299.334 291.746 294.899C291.742 291.123 291.741 287.347 291.744 283.57C291.745 281.645 291.745 279.719 291.741 277.793C291.738 276.028 291.739 274.263 291.742 272.498C291.743 271.861 291.742 271.225 291.74 270.588C291.713 262.822 293.012 256.586 298.424 250.771C303.579 245.804 309.809 244.731 316.688 244.752Z" fill="white"/>
<path d="M464.918 349.792C465.175 350.01 465.433 350.228 465.697 350.453C470.407 354.745 472.15 360.45 472.442 366.623C472.45 375.01 468.241 380.426 462.607 386.092C462.079 386.621 461.551 387.149 461.022 387.678C460.459 388.244 459.897 388.81 459.334 389.376C457.814 390.905 456.292 392.432 454.768 393.957C453.815 394.912 452.863 395.866 451.911 396.822C448.586 400.157 445.258 403.49 441.928 406.821C438.829 409.922 435.736 413.028 432.645 416.136C429.986 418.81 427.322 421.48 424.656 424.147C423.065 425.737 421.477 427.33 419.892 428.926C418.403 430.426 416.909 431.922 415.41 433.413C414.863 433.96 414.317 434.509 413.773 435.059C409.873 439.004 406.74 441.248 401.2 442.133C400.84 442.194 400.481 442.256 400.11 442.319C398.973 442.513 397.836 442.699 396.698 442.886C395.931 443.015 395.164 443.145 394.396 443.275C392.685 443.565 390.972 443.85 389.259 444.131C388.502 444.256 387.746 444.384 386.99 444.513C383.167 445.133 379.719 444.635 376.423 442.546C373.714 440.448 372.222 437.568 371.694 434.237C371.591 431.558 371.912 429.055 372.352 426.415C372.421 425.994 372.49 425.572 372.562 425.138C372.709 424.25 372.858 423.363 373.008 422.476C373.234 421.129 373.45 419.781 373.666 418.433C373.81 417.566 373.956 416.7 374.102 415.833C374.165 415.436 374.227 415.038 374.291 414.628C375.324 408.718 378.523 405.368 382.64 401.295C383.207 400.727 383.774 400.157 384.34 399.588C385.872 398.05 387.41 396.519 388.95 394.989C390.565 393.383 392.174 391.771 393.784 390.16C396.488 387.457 399.196 384.757 401.906 382.06C405.034 378.947 408.157 375.828 411.276 372.706C414.284 369.696 417.295 366.689 420.307 363.685C421.587 362.409 422.865 361.132 424.142 359.854C425.647 358.348 427.156 356.846 428.667 355.345C429.219 354.796 429.77 354.246 430.32 353.694C439.927 344.067 453.654 339.747 464.918 349.792ZM438.999 362.751C438.474 363.268 438.474 363.268 437.938 363.794C437.17 364.555 436.409 365.321 435.655 366.095C437.339 368.116 439.101 370.017 440.969 371.868C441.353 372.252 441.353 372.252 441.745 372.643C442.554 373.449 443.363 374.253 444.173 375.057C444.725 375.608 445.278 376.158 445.83 376.709C447.175 378.05 448.522 379.389 449.869 380.727C450.331 380.334 450.793 379.94 451.255 379.546C451.512 379.326 451.769 379.107 452.034 378.881C453.124 377.933 454.147 376.937 455.173 375.92C455.554 375.544 455.935 375.169 456.327 374.783C458.569 372.338 459.725 370.094 460.032 366.775C459.764 363.661 458.852 361.184 456.557 358.989C449.505 354.333 444.405 357.351 438.999 362.751ZM424.936 376.672C424.445 377.132 424.445 377.132 423.945 377.601C423.583 377.942 423.222 378.283 422.85 378.634C422.282 379.169 422.282 379.169 421.702 379.714C418.174 383.045 414.683 386.414 411.204 389.797C408.871 392.064 406.527 394.317 404.149 396.538C389.791 409.447 389.791 409.447 384.209 427.349C384.167 428.674 384.189 429.986 384.235 431.311C384.235 431.587 384.235 431.863 384.235 432.147C385.769 432.019 387.301 431.876 388.834 431.729C389.307 431.687 389.781 431.645 390.269 431.602C399.508 430.67 404.673 427.88 411.042 421.031C412.089 419.917 413.168 418.834 414.242 417.747C416.26 415.698 418.249 413.624 420.228 411.538C422.489 409.159 424.781 406.811 427.075 404.465C431.781 399.651 436.448 394.801 441.09 389.924C439.217 387.705 439.217 387.705 437.229 385.591C436.996 385.357 436.763 385.123 436.523 384.882C436.281 384.641 436.04 384.4 435.791 384.151C435.535 383.896 435.28 383.64 435.017 383.377C434.483 382.843 433.949 382.309 433.414 381.776C432.592 380.956 431.771 380.133 430.951 379.31C430.431 378.79 429.91 378.27 429.389 377.75C429.143 377.503 428.897 377.256 428.644 377.002C426.808 375.047 426.808 375.047 424.936 376.672Z" fill="white"/>
<path d="M336.959 315.299C337.515 315.295 337.515 315.295 338.082 315.291C339.321 315.285 340.56 315.29 341.799 315.295C342.688 315.293 343.578 315.29 344.467 315.286C346.881 315.279 349.295 315.282 351.709 315.287C354.236 315.291 356.763 315.287 359.289 315.285C363.533 315.281 367.776 315.286 372.02 315.293C376.925 315.303 381.83 315.3 386.735 315.29C390.947 315.283 395.159 315.282 399.371 315.286C401.886 315.289 404.401 315.289 406.917 315.284C409.282 315.279 411.647 315.282 414.012 315.292C414.88 315.294 415.748 315.293 416.615 315.29C417.801 315.285 418.985 315.291 420.171 315.299C420.513 315.295 420.856 315.292 421.209 315.288C423.563 315.32 424.93 315.848 426.876 317.184C428.206 318.706 428.689 320.432 428.6 322.435C428.252 324.472 427.267 325.972 425.622 327.217C423.522 328.093 421.685 328.172 419.451 328.162C419.088 328.164 418.724 328.165 418.349 328.167C417.133 328.171 415.917 328.169 414.701 328.168C413.828 328.17 412.956 328.172 412.083 328.174C409.713 328.18 407.344 328.18 404.975 328.179C402.997 328.179 401.019 328.181 399.041 328.183C394.374 328.187 389.708 328.187 385.041 328.185C380.227 328.182 375.413 328.188 370.6 328.196C366.466 328.204 362.332 328.206 358.198 328.205C355.73 328.204 353.261 328.205 350.793 328.211C348.471 328.216 346.15 328.216 343.829 328.21C342.977 328.209 342.126 328.21 341.274 328.214C340.111 328.218 338.948 328.215 337.785 328.209C337.28 328.214 337.28 328.214 336.766 328.219C334.589 328.198 333.076 327.822 331.143 326.799C329.264 324.771 328.902 323.456 328.937 320.753C329.164 318.669 330.246 317.578 331.808 316.292C333.619 315.3 334.931 315.277 336.959 315.299Z" fill="white"/>
<path d="M336.827 281.588C337.199 281.586 337.57 281.585 337.953 281.583C339.203 281.579 340.452 281.577 341.702 281.576C342.596 281.573 343.49 281.57 344.384 281.567C346.816 281.56 349.249 281.556 351.681 281.552C353.2 281.55 354.719 281.547 356.237 281.545C360.987 281.537 365.737 281.531 370.487 281.527C375.974 281.523 381.462 281.512 386.949 281.495C391.187 281.483 395.426 281.477 399.665 281.475C402.198 281.474 404.731 281.47 407.264 281.46C409.646 281.45 412.028 281.448 414.411 281.453C415.285 281.453 416.16 281.45 417.034 281.445C418.228 281.437 419.421 281.44 420.615 281.446C420.962 281.441 421.308 281.436 421.665 281.432C424.253 281.461 425.718 282.243 427.634 284.027C428.711 286.124 428.737 288.118 428.078 290.35C427.11 291.996 426.067 292.923 424.368 293.773C423.178 293.817 421.999 293.835 420.809 293.834C420.25 293.837 420.25 293.837 419.679 293.839C418.422 293.844 417.166 293.845 415.909 293.847C415.011 293.85 414.113 293.852 413.215 293.855C410.769 293.863 408.324 293.867 405.879 293.87C404.352 293.873 402.825 293.875 401.299 293.878C396.525 293.886 391.75 293.892 386.976 293.895C381.46 293.899 375.944 293.91 370.428 293.927C366.168 293.94 361.908 293.946 357.648 293.947C355.102 293.948 352.556 293.952 350.01 293.963C347.615 293.972 345.22 293.974 342.825 293.97C341.946 293.97 341.067 293.972 340.187 293.978C338.987 293.985 337.787 293.982 336.587 293.977C336.065 293.984 336.065 293.984 335.532 293.991C333.32 293.966 332.061 293.569 330.307 292.101C328.919 290.11 328.73 288.185 329.053 285.83C329.742 284.279 330.705 283.183 331.979 282.068C333.601 281.527 335.137 281.588 336.827 281.588Z" fill="white"/>
<path d="M335.563 349.315C335.955 349.312 336.347 349.31 336.751 349.307C337.18 349.307 337.609 349.306 338.052 349.306C338.731 349.303 338.731 349.303 339.424 349.3C340.925 349.294 342.426 349.291 343.928 349.288C344.97 349.286 346.012 349.284 347.054 349.281C348.96 349.277 350.867 349.275 352.774 349.273C355.299 349.272 357.823 349.267 360.348 349.256C363.057 349.244 365.767 349.239 368.476 349.238C369.509 349.237 370.542 349.233 371.575 349.228C373.02 349.221 374.465 349.222 375.91 349.224C376.55 349.219 376.55 349.219 377.203 349.213C379.443 349.226 381.056 349.347 382.981 350.627C384.839 352.687 385.218 353.952 385.19 356.671C384.973 358.613 383.96 359.75 382.537 361C381.197 361.822 380.096 361.968 378.561 361.973C377.973 361.977 377.973 361.977 377.373 361.981C376.944 361.981 376.514 361.982 376.072 361.982C375.393 361.985 375.393 361.985 374.7 361.988C373.199 361.995 371.697 361.997 370.196 362C369.154 362.002 368.112 362.005 367.07 362.007C365.164 362.011 363.257 362.013 361.35 362.015C358.825 362.016 356.301 362.021 353.776 362.032C351.066 362.044 348.357 362.049 345.648 362.05C344.615 362.051 343.582 362.055 342.549 362.06C341.104 362.067 339.659 362.067 338.214 362.064C337.574 362.07 337.574 362.07 336.921 362.075C334.68 362.062 333.068 361.941 331.143 360.661C329.284 358.601 328.906 357.337 328.933 354.617C329.151 352.675 330.164 351.538 331.587 350.288C332.927 349.467 334.028 349.32 335.563 349.315Z" fill="white"/>
<path d="M184.148 261.316C189.838 265.057 195.568 268.181 201.897 270.692L203.211 271.214C224.374 279.381 244.674 276.812 265.188 268.284C271.285 265.434 276.814 261.692 282.378 257.928L282.405 257.909C295.442 249.163 295.442 249.163 302.636 249.568C303.162 249.584 302.426 271.064 302.969 271.081C302.969 271.081 296.867 273.966 294.083 275.876C292.726 276.771 291.369 277.665 290.011 278.557L288.033 279.869C265.988 294.343 239.053 301.396 212.864 296.33C194.908 292.463 179.897 284.839 164.812 274.534C159.222 270.82 155.28 270.842 148.848 272.506L147.4 272.881C134.666 276.367 126.074 284.856 119.56 296.093C107.915 316.937 104.356 341.422 104.198 365.016C104.187 366.263 104.168 367.51 104.141 368.757C103.904 380.083 105.041 390.296 112.734 399.251L113.876 400.599C122.542 409.998 134.924 411.96 147.104 412.461C151.891 412.583 156.679 412.573 161.467 412.564L162.106 412.563C163.77 412.565 165.434 412.567 167.097 412.57C171.116 412.576 175.136 412.575 179.155 412.571C182.426 412.568 185.697 412.567 188.969 412.569L190.388 412.569L193.245 412.571C202.141 412.575 211.036 412.57 219.931 412.563C227.536 412.557 235.141 412.558 242.746 412.564C251.613 412.571 260.48 412.574 269.347 412.57L272.192 412.569L273.606 412.568C276.867 412.567 280.128 412.569 283.389 412.572C287.792 412.576 292.194 412.573 296.597 412.565C298.203 412.564 299.809 412.564 301.416 412.567C299.684 412.331 304.019 433.407 302.151 433.413C297.626 433.425 293.101 433.425 288.575 433.422C284.893 433.419 281.21 433.42 277.528 433.424L275.933 433.425L272.724 433.428C262.717 433.438 252.71 433.434 242.704 433.426C233.575 433.419 224.446 433.428 215.317 433.445C205.914 433.462 196.512 433.468 187.109 433.464C181.842 433.461 176.575 433.463 171.308 433.475C166.824 433.485 162.34 433.485 157.855 433.473C155.573 433.468 153.292 433.468 151.01 433.477C130.976 433.551 113.726 430.391 98.9107 415.84L97.2907 414.271C87.4677 404.128 82.9432 389.987 82.8732 376.062L82.8585 374.129C82.8464 372.063 82.842 369.998 82.8408 367.932L82.8394 365.798C82.8506 355.136 83.2299 344.802 85.0871 334.281L85.4688 332.024C89.2116 310.177 95.7067 289.407 109.97 272.074L111.087 270.635C120.619 258.707 136.503 251.838 151.378 250.106C165.113 248.686 172.936 253.871 184.148 261.316Z" fill="white"/>
<path d="M281.339 96.8144C287.307 101.815 292.565 106.888 297.28 113.103C297.697 113.648 298.115 114.194 298.546 114.755C306.456 125.541 310.819 137.297 313.177 150.427C313.305 151.134 313.433 151.842 313.566 152.57C316.175 175.823 310.86 198.12 296.588 216.78C294.607 219.18 292.523 221.448 290.368 223.692C289.785 224.318 289.202 224.945 288.602 225.59C284.041 230.356 279.311 233.976 273.78 237.515C273.205 237.899 272.63 238.282 272.038 238.676C259.28 246.843 243.653 250.247 228.68 250.173C227.866 250.169 227.053 250.166 226.214 250.162C219.738 250.076 213.701 249.468 207.426 247.883C206.742 247.711 206.742 247.711 206.045 247.535C193.575 244.287 181.773 238.117 172.362 229.3C171.055 228.083 169.726 226.964 168.331 225.852C165.004 223.017 162.394 219.536 159.735 216.089C159.321 215.556 158.908 215.023 158.482 214.474C147.712 199.865 142.863 183.029 142.887 164.985C142.888 164.518 142.888 164.051 142.888 163.571C142.934 151.278 144.861 140.178 150.058 129C150.37 128.294 150.682 127.589 151.003 126.862C157.654 112.582 169.404 100.16 182.544 91.6764C183.151 91.2791 183.759 90.8817 184.385 90.4723C213.646 72.3351 254.695 75.1403 281.339 96.8144ZM179.524 122.499C166.661 137.335 163.733 154.037 164.573 173.236C165.156 179.867 167.212 185.935 170.103 191.898C170.416 192.544 170.73 193.191 171.053 193.858C178.762 208.816 192.5 220.63 208.471 225.871C224.421 230.634 242.21 229.886 257.191 222.309C263.372 218.943 268.726 214.766 273.78 209.868C274.194 209.505 274.608 209.141 275.035 208.767C285.478 199.269 291.825 184.043 292.527 170.157C293.074 152.106 289.059 136.789 277.235 122.78C276.708 122.081 276.18 121.382 275.637 120.663C265.491 109.573 250.924 101.455 235.783 100.537C213.462 99.6191 194.813 105.66 179.524 122.499Z" fill="white"/>
</svg>
